<svg xmlns="http://www.w3.org/2000/svg" viewBox="0 0 64 64" role="img" aria-label="Bitcoin">
  <circle cx="32" cy="32" r="28" fill="#f7931a"/>
  <path
    fill="#fff"
    d="M23.8 12.5h5v4.9h2.2v-4.9h5v4.8h3.9c3.5 0 5.7 2.3 5.7 5.3 0 2.5-1.5 4.5-4.1 5v.1c3.1.3 5.1 2.7 5.1 5.7 0 3.6-2.5 6.2-6.5 6.2h-3.7v5.3h-5v-5.3h-2.2v5.3h-5v-5.3h-4.9v-4.8h3c1.1 0 1.4-.3 1.4-1.3V22.9c0-1-.3-1.3-1.4-1.3h-3v-4.8h4.9v-4.3Zm7.2 21.4v5.8h5.2c1.5 0 2.5-.9 2.5-2.5 0-1.5-1-2.4-2.5-2.4h-5.2Zm0-9.5v5.2h4.7c1.6 0 2.5-.9 2.5-2.5 0-1.5-1-2.7-2.5-2.7h-4.7Z"
  />
</svg>
